<?xml version="1.0" encoding="UTF-8"?>
<svg version="1.1" xmlns="http://www.w3.org/2000/svg" width="466" height="406">
<path d="M0 0 C15.51 0 31.02 0 47 0 C47 0.66 47 1.32 47 2 C51.29 2 55.58 2 60 2 C60 2.66 60 3.32 60 4 C62.97 4 65.94 4 69 4 C69 4.66 69 5.32 69 6 C71.31 6 73.62 6 76 6 C76 6.66 76 7.32 76 8 C76.721875 7.95875 77.44375 7.9175 78.1875 7.875 C81.20729369 8.00921305 83.26935729 8.75170619 86 10 C86 10.66 86 11.32 86 12 C88.31 12 90.62 12 93 12 C93 12.66 93 13.32 93 14 C94.32 14 95.64 14 97 14 C97 14.66 97 15.32 97 16 C98.32 16 99.64 16 101 16 C101 16.66 101 17.32 101 18 C102.32 18 103.64 18 105 18 C105 18.66 105 19.32 105 20 C106.32 20 107.64 20 109 20 C109 20.66 109 21.32 109 22 C109.66 22 110.32 22 111 22 C111 22.66 111 23.32 111 24 C112.32 24 113.64 24 115 24 C115 24.66 115 25.32 115 26 C115.598125 26.12375 116.19625 26.2475 116.8125 26.375 C119 27 119 27 122 29 C122 29.66 122 30.32 122 31 C122.66 31 123.32 31 124 31 C124 31.66 124 32.32 124 33 C125.32 33 126.64 33 128 33 C128 33.66 128 34.32 128 35 C128.66 35 129.32 35 130 35 C130 35.66 130 36.32 130 37 C130.66 37 131.32 37 132 37 C132 37.66 132 38.32 132 39 C132.66 39 133.32 39 134 39 C134 39.66 134 40.32 134 41 C134.66 41 135.32 41 136 41 C136 41.66 136 42.32 136 43 C136.66 43 137.32 43 138 43 C138 43.66 138 44.32 138 45 C138.61875 45.12375 139.2375 45.2475 139.875 45.375 C142 46 142 46 144 48 C144 48.99 144 49.98 144 51 C144.66 51 145.32 51 146 51 C146 51.66 146 52.32 146 53 C146.66 53 147.32 53 148 53 C148 53.66 148 54.32 148 55 C148.66 55 149.32 55 150 55 C150 55.66 150 56.32 150 57 C150.66 57 151.32 57 152 57 C152 57.66 152 58.32 152 59 C152.99 59.33 153.98 59.66 155 60 C155 60.66 155 61.32 155 62 C155.66 62 156.32 62 157 62 C157 63.32 157 64.64 157 66 C157.66 66 158.32 66 159 66 C159 66.66 159 67.32 159 68 C159.66 68 160.32 68 161 68 C161 68.66 161 69.32 161 70 C161.66 70 162.32 70 163 70 C163 70.66 163 71.32 163 72 C163.66 72 164.32 72 165 72 C165 73.32 165 74.64 165 76 C165.66 76 166.32 76 167 76 C167 77.32 167 78.64 167 80 C167.66 80 168.32 80 169 80 C169.66 81.98 170.32 83.96 171 86 C171.66 86 172.32 86 173 86 C173 87.32 173 88.64 173 90 C173.66 90 174.32 90 175 90 C175 91.65 175 93.3 175 95 C175.66 95 176.32 95 177 95 C177 96.32 177 97.64 177 99 C177.66 99 178.32 99 179 99 C179 100.98 179 102.96 179 105 C179.66 105 180.32 105 181 105 C181 106.32 181 107.64 181 109 C181.66 109 182.32 109 183 109 C183 110.98 183 112.96 183 115 C183.66 115 184.32 115 185 115 C187.29342747 120.89738492 188.34548714 125.66606918 188 132 C188.66 132 189.32 132 190 132 C190 135.3 190 138.6 190 142 C190.66 142 191.32 142 192 142 C192 158.17 192 174.34 192 191 C191.34 191 190.68 191 190 191 C190.01160156 191.85464844 190.02320313 192.70929688 190.03515625 193.58984375 C190.04869141 195.24693359 190.04869141 195.24693359 190.0625 196.9375 C190.07410156 198.03964844 190.08570313 199.14179688 190.09765625 200.27734375 C190 203 190 203 189 204 C188.76924918 205.34747084 188.58846937 206.70377565 188.4375 208.0625 C188.293125 209.361875 188.14875 210.66125 188 212 C187.34 212 186.68 212 186 212 C186 213.65 186 215.3 186 217 C185.01 217.33 184.02 217.66 183 218 C183.04125 218.845625 183.0825 219.69125 183.125 220.5625 C182.98464972 224.42213269 182.17219836 227.33688013 181 231 C180.34 231 179.68 231 179 231 C179 232.32 179 233.64 179 235 C178.34 235 177.68 235 177 235 C177 236.32 177 237.64 177 239 C176.34 239 175.68 239 175 239 C175 240.32 175 241.64 175 243 C174.34 243 173.68 243 173 243 C173 244.32 173 245.64 173 247 C172.34 247 171.68 247 171 247 C171 248.32 171 249.64 171 251 C170.34 251 169.68 251 169 251 C169 252.32 169 253.64 169 255 C168.34 255 167.68 255 167 255 C167 255.99 167 256.98 167 258 C166.34 258 165.68 258 165 258 C165 259.32 165 260.64 165 262 C164.34 262 163.68 262 163 262 C163 262.66 163 263.32 163 264 C162.34 264 161.68 264 161 264 C161 265.32 161 266.64 161 268 C160.34 268 159.68 268 159 268 C159 268.66 159 269.32 159 270 C158.34 270 157.68 270 157 270 C157 270.66 157 271.32 157 272 C156.34 272 155.68 272 155 272 C154.67 273.32 154.34 274.64 154 276 C153.34 276 152.68 276 152 276 C152 276.66 152 277.32 152 278 C151.34 278 150.68 278 150 278 C150 278.66 150 279.32 150 280 C149.34 280 148.68 280 148 280 C148 280.66 148 281.32 148 282 C147.34 282 146.68 282 146 282 C146 282.66 146 283.32 146 284 C145.34 284 144.68 284 144 284 C144 284.66 144 285.32 144 286 C143.34 286 142.68 286 142 286 C142 286.66 142 287.32 142 288 C141.34 288 140.68 288 140 288 C140 288.99 140 289.98 140 291 C139.34 291 138.68 291 138 291 C138 291.66 138 292.32 138 293 C137.34 293 136.68 293 136 293 C136 293.66 136 294.32 136 295 C135.34 295 134.68 295 134 295 C134 295.66 134 296.32 134 297 C132.68 297 131.36 297 130 297 C130 297.66 130 298.32 130 299 C129.34 299 128.68 299 128 299 C128 299.66 128 300.32 128 301 C127.34 301 126.68 301 126 301 C126 301.66 126 302.32 126 303 C123 305 123 305 119 305 C119 305.66 119 306.32 119 307 C118.34 307 117.68 307 117 307 C117 307.66 117 308.32 117 309 C115.68 309 114.36 309 113 309 C113 309.66 113 310.32 113 311 C111.68 311 110.36 311 109 311 C109 311.66 109 312.32 109 313 C108.34 313 107.68 313 107 313 C107 313.66 107 314.32 107 315 C105.68 315 104.36 315 103 315 C103 315.66 103 316.32 103 317 C101.68 317 100.36 317 99 317 C99 317.66 99 318.32 99 319 C97.68 319 96.36 319 95 319 C94.67 319.99 94.34 320.98 94 322 C90.75515269 324.28341107 87.87540045 324.17615457 84 324 C84 324.66 84 325.32 84 326 C82.02 326 80.04 326 78 326 C78 326.66 78 327.32 78 328 C76.68 328 75.36 328 74 328 C74 328.66 74 329.32 74 330 C71.36 330 68.72 330 66 330 C66 330.66 66 331.32 66 332 C63.03 332 60.06 332 57 332 C57 332.66 57 333.32 57 334 C55.71222656 334.06058594 54.42445313 334.12117188 53.09765625 334.18359375 C51.41925841 334.26798247 49.74087364 334.3526313 48.0625 334.4375 C47.21236328 334.47681641 46.36222656 334.51613281 45.48632812 334.55664062 C44.67744141 334.59853516 43.86855469 334.64042969 43.03515625 334.68359375 C42.2862915 334.72025146 41.53742676 334.75690918 40.76586914 334.79467773 C38.97538674 334.81771063 38.97538674 334.81771063 38 336 C35.9394469 336.09993532 33.8754741 336.13080906 31.8125 336.1328125 C30.55695313 336.13410156 29.30140625 336.13539063 28.0078125 336.13671875 C27.35071289 336.13462402 26.69361328 336.1325293 26.01660156 336.13037109 C24.00838665 336.12502234 22.00039541 336.13031691 19.9921875 336.13671875 C18.10886719 336.13478516 18.10886719 336.13478516 16.1875 336.1328125 C15.02605469 336.13168457 13.86460937 336.13055664 12.66796875 336.12939453 C10 336 10 336 9 335 C6.14122091 334.76298761 3.30116703 334.57780818 0.4375 334.4375 C-0.36880859 334.39431641 -1.17511719 334.35113281 -2.00585938 334.30664062 C-4.00368805 334.20024738 -6.0018207 334.09959112 -8 334 C-8 333.34 -8 332.68 -8 332 C-8.63808594 332.01160156 -9.27617187 332.02320313 -9.93359375 332.03515625 C-11.17302734 332.04869141 -11.17302734 332.04869141 -12.4375 332.0625 C-13.26121094 332.07410156 -14.08492187 332.08570313 -14.93359375 332.09765625 C-17 332 -17 332 -18 331 C-20.32817964 330.63239269 -22.6618385 330.29758419 -25 330 C-25 329.34 -25 328.68 -25 328 C-26.98 328 -28.96 328 -31 328 C-31 327.34 -31 326.68 -31 326 C-31.73089844 326.04382813 -32.46179688 326.08765625 -33.21484375 326.1328125 C-36.28387223 325.98646332 -37.87576901 325.32065221 -40.5625 323.875 C-41.41714844 323.42511719 -42.27179688 322.97523438 -43.15234375 322.51171875 C-44.09207031 322.01285156 -45.03179687 321.51398438 -46 321 C-48.20572919 319.89064033 -50.41406252 318.78644295 -52.625 317.6875 C-54.41666667 316.79166667 -56.20833333 315.89583333 -58 315 C-58 314.34 -58 313.68 -58 313 C-59.32 313 -60.64 313 -62 313 C-62 312.34 -62 311.68 -62 311 C-63.32 311 -64.64 311 -66 311 C-66 310.34 -66 309.68 -66 309 C-66.66 309 -67.32 309 -68 309 C-68 308.34 -68 307.68 -68 307 C-69.32 307 -70.64 307 -72 307 C-72 306.34 -72 305.68 -72 305 C-72.99 305 -73.98 305 -75 305 C-75 304.34 -75 303.68 -75 303 C-75.61875 302.855625 -76.2375 302.71125 -76.875 302.5625 C-79 302 -79 302 -81 301 C-81 300.34 -81 299.68 -81 299 C-81.66 299 -82.32 299 -83 299 C-83 298.34 -83 297.68 -83 297 C-83.66 297 -84.32 297 -85 297 C-85 296.34 -85 295.68 -85 295 C-85.66 295 -86.32 295 -87 295 C-87 294.34 -87 293.68 -87 293 C-88.32 292.67 -89.64 292.34 -91 292 C-91 291.34 -91 290.68 -91 290 C-91.66 290 -92.32 290 -93 290 C-93 289.34 -93 288.68 -93 288 C-93.66 288 -94.32 288 -95 288 C-95 287.34 -95 286.68 -95 286 C-95.66 286 -96.32 286 -97 286 C-97 285.34 -97 284.68 -97 284 C-97.66 284 -98.32 284 -99 284 C-99 283.34 -99 282.68 -99 282 C-99.66 282 -100.32 282 -101 282 C-103 279 -103 279 -103 276 C-104.65 275.34 -106.3 274.68 -108 274 C-108 273.34 -108 272.68 -108 272 C-108.66 272 -109.32 272 -110 272 C-110 271.34 -110 270.68 -110 270 C-110.66 270 -111.32 270 -112 270 C-112 268.68 -112 267.36 -112 266 C-112.66 266 -113.32 266 -114 266 C-114 265.34 -114 264.68 -114 264 C-114.66 264 -115.32 264 -116 264 C-120 257.5 -120 257.5 -120 253 C-120.66 253 -121.32 253 -122 253 C-122 252.34 -122 251.68 -122 251 C-122.66 251 -123.32 251 -124 251 C-124 249.68 -124 248.36 -124 247 C-124.66 247 -125.32 247 -126 247 C-126 245.68 -126 244.36 -126 243 C-126.66 243 -127.32 243 -128 243 C-128 241.68 -128 240.36 -128 239 C-128.66 239 -129.32 239 -130 239 C-130 237.02 -130 235.04 -130 233 C-130.66 233 -131.32 233 -132 233 C-132 231.68 -132 230.36 -132 229 C-132.66 229 -133.32 229 -134 229 C-134 226.69 -134 224.38 -134 222 C-134.66 222 -135.32 222 -136 222 C-136 220.02 -136 218.04 -136 216 C-136.99 215.67 -137.98 215.34 -139 215 C-140.39285153 211.20834861 -141.09372776 207.62759374 -141.5625 203.625 C-141.59793141 200.1963063 -141.59793141 200.1963063 -143 199 C-143.07319621 196.30345146 -143.09242537 193.63308542 -143.0625 190.9375 C-143.05798828 190.17888672 -143.05347656 189.42027344 -143.04882812 188.63867188 C-143.0370068 186.75908129 -143.01907078 184.87953101 -143 183 C-143.66 183 -144.32 183 -145 183 C-145.02465622 178.74585377 -145.04283899 174.49174502 -145.05493164 170.23754883 C-145.05997101 168.78929927 -145.06680253 167.34105483 -145.07543945 165.89282227 C-145.08752247 163.81525412 -145.09323211 161.73775303 -145.09765625 159.66015625 C-145.10289307 158.40855713 -145.10812988 157.15695801 -145.11352539 155.86743164 C-145 153 -145 153 -144 152 C-143.76321284 149.30764224 -143.57801975 146.63501844 -143.4375 143.9375 C-143.39431641 143.17888672 -143.35113281 142.42027344 -143.30664062 141.63867188 C-143.20026367 139.75934562 -143.09960066 137.87969756 -143 136 C-142.34 136 -141.68 136 -141 136 C-141.04640625 135.38253906 -141.0928125 134.76507813 -141.140625 134.12890625 C-141.39142474 128.24406955 -140.59539869 124.29954756 -137.95703125 119.05078125 C-136.73051942 116.4225416 -136.29458624 113.87221581 -136 111 C-135.34 111 -134.68 111 -134 111 C-134 109.68 -134 108.36 -134 107 C-133.34 107 -132.68 107 -132 107 C-132 105.02 -132 103.04 -132 101 C-131.34 101 -130.68 101 -130 101 C-130 99.68 -130 98.36 -130 97 C-129.34 97 -128.68 97 -128 97 C-128 95.35 -128 93.7 -128 92 C-127.34 92 -126.68 92 -126 92 C-126 90.68 -126 89.36 -126 88 C-125.34 88 -124.68 88 -124 88 C-124 86.68 -124 85.36 -124 84 C-123.34 84 -122.68 84 -122 84 C-122 82.68 -122 81.36 -122 80 C-121.34 80 -120.68 80 -120 80 C-120 79.34 -120 78.68 -120 78 C-119.34 78 -118.68 78 -118 78 C-118 76.68 -118 75.36 -118 74 C-117.34 74 -116.68 74 -116 74 C-116 73.34 -116 72.68 -116 72 C-115.34 72 -114.68 72 -114 72 C-114 70.68 -114 69.36 -114 68 C-113.34 68 -112.68 68 -112 68 C-112 67.34 -112 66.68 -112 66 C-111.34 66 -110.68 66 -110 66 C-110 65.34 -110 64.68 -110 64 C-109.34 64 -108.68 64 -108 64 C-107.690625 63.21625 -107.38125 62.4325 -107.0625 61.625 C-106 59 -106 59 -105 57 C-104.34 57 -103.68 57 -103 57 C-103 56.34 -103 55.68 -103 55 C-102.34 55 -101.68 55 -101 55 C-101 54.34 -101 53.68 -101 53 C-100.34 53 -99.68 53 -99 53 C-99 52.34 -99 51.68 -99 51 C-98.34 51 -97.68 51 -97 51 C-97 50.34 -97 49.68 -97 49 C-96.34 49 -95.68 49 -95 49 C-95 48.34 -95 47.68 -95 47 C-94.34 47 -93.68 47 -93 47 C-93 46.34 -93 45.68 -93 45 C-92.34 45 -91.68 45 -91 45 C-91 44.34 -91 43.68 -91 43 C-90.34 43 -89.68 43 -89 43 C-89 42.34 -89 41.68 -89 41 C-88.34 41 -87.68 41 -87 41 C-87 40.34 -87 39.68 -87 39 C-86.34 39 -85.68 39 -85 39 C-85 38.34 -85 37.68 -85 37 C-83.68 37 -82.36 37 -81 37 C-81 36.34 -81 35.68 -81 35 C-80.34 35 -79.68 35 -79 35 C-79 34.34 -79 33.68 -79 33 C-78.34 33 -77.68 33 -77 33 C-77 32.34 -77 31.68 -77 31 C-76.01 31 -75.02 31 -74 31 C-74 30.34 -74 29.68 -74 29 C-72.68 28.67 -71.36 28.34 -70 28 C-70 27.34 -70 26.68 -70 26 C-67 24 -67 24 -64 24 C-64 23.34 -64 22.68 -64 22 C-62.68 22 -61.36 22 -60 22 C-60 21.34 -60 20.68 -60 20 C-52.71428571 15.42857143 -52.71428571 15.42857143 -48 16 C-48 15.34 -48 14.68 -48 14 C-47.34 14 -46.68 14 -46 14 C-46 13.34 -46 12.68 -46 12 C-43.69 12 -41.38 12 -39 12 C-39 11.34 -39 10.68 -39 10 C-37.02 10 -35.04 10 -33 10 C-33 9.34 -33 8.68 -33 8 C-31.02 8 -29.04 8 -27 8 C-27 7.34 -27 6.68 -27 6 C-25.02 6 -23.04 6 -21 6 C-21 5.34 -21 4.68 -21 4 C-18.94921875 3.77213542 -16.8984375 3.54427083 -14.84765625 3.31640625 C-12.98859771 3.18113386 -12.98859771 3.18113386 -12 2 C-9.98035801 1.92755947 -7.95832876 1.91622812 -5.9375 1.9375 C-4.83277344 1.94652344 -3.72804687 1.95554687 -2.58984375 1.96484375 C-1.73519531 1.97644531 -0.88054687 1.98804687 0 2 C0 1.34 0 0.68 0 0 Z M2 152 C2 152.66 2 153.32 2 154 C0.02 154 -1.96 154 -4 154 C-4 154.66 -4 155.32 -4 156 C-5.65 156 -7.3 156 -9 156 C-9 156.66 -9 157.32 -9 158 C-9.66 158 -10.32 158 -11 158 C-11 158.99 -11 159.98 -11 161 C-11.66 161 -12.32 161 -13 161 C-13 161.66 -13 162.32 -13 163 C-13.66 163 -14.32 163 -15 163 C-15 164.32 -15 165.64 -15 167 C-15.66 167 -16.32 167 -17 167 C-17 172.94 -17 178.88 -17 185 C-16.34 185 -15.68 185 -15 185 C-15 186.32 -15 187.64 -15 189 C-14.34 189 -13.68 189 -13 189 C-13 189.99 -13 190.98 -13 192 C-12.34 192 -11.68 192 -11 192 C-11 192.66 -11 193.32 -11 194 C-10.34 194 -9.68 194 -9 194 C-9 194.66 -9 195.32 -9 196 C-7.68 196 -6.36 196 -5 196 C-5 196.66 -5 197.32 -5 198 C-4.01 198 -3.02 198 -2 198 C-2 198.66 -2 199.32 -2 200 C4.6 200 11.2 200 18 200 C18 199.34 18 198.68 18 198 C19.32 198 20.64 198 22 198 C22 197.34 22 196.68 22 196 C24.475 195.505 24.475 195.505 27 195 C27 189.06 27 183.12 27 177 C24.03 177 21.06 177 18 177 C18 181.62 18 186.24 18 191 C16.68 191 15.36 191 14 191 C14 191.99 14 192.98 14 194 C12.18674449 193.88648483 10.37436643 193.75887039 8.5625 193.625 C7.55316406 193.55539063 6.54382813 193.48578125 5.50390625 193.4140625 C4.26447266 193.20910156 4.26447266 193.20910156 3 193 C2.67 192.34 2.34 191.68 2 191 C0.68 191 -0.64 191 -2 191 C-2 190.34 -2 189.68 -2 189 C-2.66 189 -3.32 189 -4 189 C-4 188.34 -4 187.68 -4 187 C-4.66 187 -5.32 187 -6 187 C-6 185.68 -6 184.36 -6 183 C-6.66 183 -7.32 183 -8 183 C-7.85890014 180.89551062 -7.71195825 178.7914123 -7.5625 176.6875 C-7.48128906 175.51574219 -7.40007812 174.34398437 -7.31640625 173.13671875 C-7 170 -7 170 -6 167 C-5.34 167 -4.68 167 -4 167 C-4 165.68 -4 164.36 -4 163 C-2.68 163 -1.36 163 0 163 C0 162.34 0 161.68 0 161 C5.94 161 11.88 161 18 161 C18 161.66 18 162.32 18 163 C19.32 163 20.64 163 22 163 C22 162.34 22 161.68 22 161 C22.99 161 23.98 161 25 161 C25 160.34 25 159.68 25 159 C25.66 158.67 26.32 158.34 27 158 C26.34 158 25.68 158 25 158 C25 157.34 25 156.68 25 156 C23.35 156 21.7 156 20 156 C20 155.34 20 154.68 20 154 C18.02 154 16.04 154 14 154 C14 153.34 14 152.68 14 152 C10.04 152 6.08 152 2 152 Z M-106 154 C-106 169.18 -106 184.36 -106 200 C-103.03 200 -100.06 200 -97 200 C-97 184.82 -97 169.64 -97 154 C-99.97 154 -102.94 154 -106 154 Z M-83 154 C-83 168.52 -83 183.04 -83 198 C-82.34 198 -81.68 198 -81 198 C-81 198.66 -81 199.32 -81 200 C-70.77 200 -60.54 200 -50 200 C-50 198.02 -50 196.04 -50 194 C-56.93 193.67 -63.86 193.34 -71 193 C-71.33 180.13 -71.66 167.26 -72 154 C-75.63 154 -79.26 154 -83 154 Z M-39 154 C-39 169.18 -39 184.36 -39 200 C-35.7 200 -32.4 200 -29 200 C-29 184.82 -29 169.64 -29 154 C-32.3 154 -35.6 154 -39 154 Z M53 154 C53 155.98 53 157.96 53 160 C52.34 160 51.68 160 51 160 C51 161.65 51 163.3 51 165 C50.34 165 49.68 165 49 165 C49 166.32 49 167.64 49 169 C48.34 169 47.68 169 47 169 C45.68373308 172.61973402 45 175.09567131 45 179 C44.34 179 43.68 179 43 179 C43 180.32 43 181.64 43 183 C42.34 183 41.68 183 41 183 C41 184.32 41 185.64 41 187 C40.34 187 39.68 187 39 187 C37.57741188 190.82320557 36.75957724 193.91281305 37 198 C36.34 198 35.68 198 35 198 C35 198.66 35 199.32 35 200 C37.64 200 40.28 200 43 200 C43 199.34 43 198.68 43 198 C43.66 198 44.32 198 45 198 C45 196.02 45 194.04 45 192 C45.66 192 46.32 192 47 192 C47.33 191.34 47.66 190.68 48 190 C55.92 189.67 63.84 189.34 72 189 C72 189.99 72 190.98 72 192 C72.66 192 73.32 192 74 192 C74 193.32 74 194.64 74 196 C74.66 196 75.32 196 76 196 C76 197.32 76 198.64 76 200 C78.97 200 81.94 200 85 200 C84.690625 198.9275 84.38125 197.855 84.0625 196.75 C83.33187904 194.17133778 82.62517096 191.60487898 82 189 C81.34 189 80.68 189 80 189 C80 187.68 80 186.36 80 185 C79.34 185 78.68 185 78 185 C78 183.68 78 182.36 78 181 C77.34 181 76.68 181 76 181 C76 179.02 76 177.04 76 175 C75.34 175 74.68 175 74 175 C74 173.68 74 172.36 74 171 C73.34 171 72.68 171 72 171 C72 169.68 72 168.36 72 167 C71.34 167 70.68 167 70 167 C70 165.35 70 163.7 70 162 C69.34 162 68.68 162 68 162 C68 160.02 68 158.04 68 156 C67.34 156 66.68 156 66 156 C66 155.34 66 154.68 66 154 C61.71 154 57.42 154 53 154 Z M95 154 C94.9506608 160.2296431 94.91430943 166.45917315 94.89013672 172.68896484 C94.88006249 174.8094277 94.86640267 176.92987661 94.84912109 179.05029297 C94.82493511 182.09345943 94.81353131 185.13644266 94.8046875 188.1796875 C94.79436493 189.13181122 94.78404236 190.08393494 94.77340698 191.06491089 C94.77325592 191.94567291 94.77310486 192.82643494 94.77294922 193.73388672 C94.768508 194.51110077 94.76406677 195.28831482 94.75949097 196.08908081 C94.83188605 198.24073389 94.83188605 198.24073389 97 200 C99.64 200 102.28 200 105 200 C105 191.09 105 182.18 105 173 C106.98 173 108.96 173 111 173 C111 174.32 111 175.64 111 177 C111.66 177 112.32 177 113 177 C113 177.66 113 178.32 113 179 C113.66 179 114.32 179 115 179 C115 179.66 115 180.32 115 181 C115.66 181 116.32 181 117 181 C117 181.66 117 182.32 117 183 C117.66 183 118.32 183 119 183 C119 184.32 119 185.64 119 187 C121.29182272 189.79197732 121.29182272 189.79197732 124 192 C124.66 192 125.32 192 126 192 C126 192.66 126 193.32 126 194 C126.66 194 127.32 194 128 194 C128 195.32 128 196.64 128 198 C128.66 198 129.32 198 130 198 C130 198.66 130 199.32 130 200 C132.64 200 135.28 200 138 200 C138 184.82 138 169.64 138 154 C135.36 154 132.72 154 130 154 C129.67 162.58 129.34 171.16 129 180 C128.01 180.33 127.02 180.66 126 181 C126 180.34 126 179.68 126 179 C125.34 179 124.68 179 124 179 C124 178.34 124 177.68 124 177 C123.34 177 122.68 177 122 177 C122 176.34 122 175.68 122 175 C121.34 175 120.68 175 120 175 C119.67 173.68 119.34 172.36 119 171 C118.34 171 117.68 171 117 171 C117 170.34 117 169.68 117 169 C116.34 169 115.68 169 115 169 C115 168.34 115 167.68 115 167 C114.34 167 113.68 167 113 167 C112.34 165.02 111.68 163.04 111 161 C110.34 161 109.68 161 109 161 C109 160.01 109 159.02 109 158 C108.34 158 107.68 158 107 158 C107 157.34 107 156.68 107 156 C106.34 156 105.68 156 105 156 C105 155.34 105 154.68 105 154 C101.7 154 98.4 154 95 154 Z " fill="#010100" transform="translate(218,18)"/>
<path d="M0 0 C3.88470066 1.71333959 6.16920323 4.07776841 9.0234375 7.1484375 C11.03350549 9.20541104 11.03350549 9.20541104 14.203125 10.6171875 C17 13 17 13 17.48095703 15.09716797 C17.59132092 17.67249637 17.52323742 20.17675039 17.375 22.75 C17.34792969 23.63816406 17.32085937 24.52632812 17.29296875 25.44140625 C17.22236624 27.63008395 17.12385527 29.81379568 17 32 C17.66 32 18.32 32 19 32 C19.33 34.31 19.66 36.62 20 39 C20.66 39 21.32 39 22 39 C22 38.34 22 37.68 22 37 C22.66 37 23.32 37 24 37 C24 35.68 24 34.36 24 33 C24.66 33 25.32 33 26 33 C25.89300781 31.92621094 25.78601563 30.85242188 25.67578125 29.74609375 C25.55375805 28.3099745 25.43271657 26.87377161 25.3125 25.4375 C25.20325195 24.38079102 25.20325195 24.38079102 25.09179688 23.30273438 C24.6780106 18.02087433 25.4660683 14.67663879 28 10 C28.66 9.67 29.32 9.34 30 9 C30.391875 8.236875 30.78375 7.47375 31.1875 6.6875 C33.57453743 3.14809968 35.98041677 1.2740035 40 0 C44.38684158 -0.52324978 48.64268068 -0.80080463 53 0 C55.30288311 2.10096016 55.91270087 3.4039253 56.36328125 6.48046875 C56.0935412 20.8596882 56.0935412 20.8596882 52 27 C51.34 27 50.68 27 50 27 C50 27.99 50 28.98 50 30 C46.72933712 33.48140146 42.77371972 33.7214457 38.25 34.1875 C37.55261719 34.26935547 36.85523438 34.35121094 36.13671875 34.43554688 C34.42573224 34.63477133 32.71299963 34.81889929 31 35 C31 36.32 31 37.64 31 39 C30.34 39 29.68 39 29 39 C29 41.64 29 44.28 29 47 C29.99 47.495 29.99 47.495 31 48 C31 48.99 31 49.98 31 51 C31.5775 51.144375 32.155 51.28875 32.75 51.4375 C34.83333333 51.95833333 36.91666667 52.47916667 39 53 C39.04125 52.4225 39.0825 51.845 39.125 51.25 C40.45453129 47.83120525 42.89666629 46.77333355 46 45 C46.66 45 47.32 45 48 45 C48.2475 44.443125 48.495 43.88625 48.75 43.3125 C50 41 50 41 51.84375 38.84375 C54.39861321 35.47429272 56.03557812 32.03207268 57.75 28.1875 C58.06582031 27.49462891 58.38164062 26.80175781 58.70703125 26.08789062 C59.47768245 24.39479329 60.23973362 22.69778588 61 21 C63.97 21 66.94 21 70 21 C70.71707754 27.59711338 68.58757319 32.47210553 65 38 C64.01 38.66 63.02 39.32 62 40 C61.67 40.99 61.34 41.98 61 43 C60.34 43 59.68 43 59 43 C59 43.66 59 44.32 59 45 C58.34 45 57.68 45 57 45 C57 45.66 57 46.32 57 47 C56.34 47 55.68 47 55 47 C54.896875 47.639375 54.79375 48.27875 54.6875 48.9375 C54.460625 49.618125 54.23375 50.29875 54 51 C52.515 51.495 52.515 51.495 51 52 C51 55.3 51 58.6 51 62 C32.76958619 63.00658727 32.76958619 63.00658727 26 57 C24.125 54.1875 24.125 54.1875 23 52 C22.01 52 21.02 52 20 52 C19.67 52.99 19.34 53.98 19 55 C18.01 55 17.02 55 16 55 C15.814375 55.61875 15.62875 56.2375 15.4375 56.875 C13.72989579 59.39928448 12.27585172 59.98601682 9.3515625 60.6953125 C4.26325982 61.35459424 -0.88149329 61.13854605 -6 61 C-6 59.68 -6 58.36 -6 57 C-5.16855469 56.79503906 -4.33710938 56.59007812 -3.48046875 56.37890625 C-2.39378906 56.10949219 -1.30710938 55.84007812 -0.1875 55.5625 C0.89144531 55.29566406 1.97039062 55.02882812 3.08203125 54.75390625 C5.0740843 54.23922588 7.04811524 53.65062825 9 53 C9 52.34 9 51.68 9 51 C9.99 51 10.98 51 12 51 C12 50.34 12 49.68 12 49 C12.66 49 13.32 49 14 49 C14 48.34 14 47.68 14 47 C14.66 47 15.32 47 16 47 C16.66 45.02 17.32 43.04 18 41 C17.2575 40.9175 16.515 40.835 15.75 40.75 C13 40 13 40 11.2578125 38.0625 C8.34555136 35.40216457 5.96024301 35.05828777 2.125 34.25 C-3.4670066 32.73125523 -6.98481754 31.50803106 -10.08984375 26.50390625 C-11.91011991 21.49619371 -11.98389505 16.28242288 -12 11 C-8.16960592 12.27679803 -8.01242585 13.59435626 -6 17 C-4.37163262 18.7041054 -2.71230248 20.38025441 -1 22 C-2.53604696 18.85808576 -4.05731159 15.91403262 -6 13 C-6 12.01 -6 11.02 -6 10 C-5.34 10 -4.68 10 -4 10 C0 15.41176471 0 15.41176471 0 18 C0.66 18 1.32 18 2 18 C2 16.35 2 14.7 2 13 C4 14 6 15 8 16 C6.18221573 12.10336669 4.44839977 8.56049971 1.75 5.1875 C0 3 0 3 0 0 Z " fill="#DEB65B" transform="translate(213,93)"/>
<path d="M0 0 C2.97 0 5.94 0 9 0 C9.71707754 6.59711338 7.58757319 11.47210553 4 17 C3.01 17.66 2.02 18.32 1 19 C0.505 20.485 0.505 20.485 0 22 C-0.66 22 -1.32 22 -2 22 C-2 22.66 -2 23.32 -2 24 C-2.66 24 -3.32 24 -4 24 C-4 24.66 -4 25.32 -4 26 C-4.66 26 -5.32 26 -6 26 C-6.103125 26.639375 -6.20625 27.27875 -6.3125 27.9375 C-6.539375 28.618125 -6.76625 29.29875 -7 30 C-7.99 30.33 -8.98 30.66 -10 31 C-10 34.3 -10 37.6 -10 41 C-28.23041381 42.00658727 -28.23041381 42.00658727 -35 36 C-36.875 33.1875 -36.875 33.1875 -38 31 C-38.99 31 -39.98 31 -41 31 C-41.495 32.485 -41.495 32.485 -42 34 C-42.33 33.34 -42.66 32.68 -43 32 C-41.7260411 29.96166576 -40.38938077 27.96147874 -39 26 C-38.34 26 -37.68 26 -37 26 C-36.7834375 25.071875 -36.7834375 25.071875 -36.5625 24.125 C-36 22 -36 22 -35 20 C-34.34 20 -33.68 20 -33 20 C-32.87625 19.38125 -32.7525 18.7625 -32.625 18.125 C-32 16 -32 16 -30 14 C-30 15.32 -30 16.64 -30 18 C-30.66 18 -31.32 18 -32 18 C-32 20.64 -32 23.28 -32 26 C-31.34 26.33 -30.68 26.66 -30 27 C-30 27.99 -30 28.98 -30 30 C-29.4225 30.144375 -28.845 30.28875 -28.25 30.4375 C-25.125 31.21875 -25.125 31.21875 -22 32 C-21.95875 31.4225 -21.9175 30.845 -21.875 30.25 C-20.54546871 26.83120525 -18.10333371 25.77333355 -15 24 C-14.34 24 -13.68 24 -13 24 C-12.7525 23.443125 -12.505 22.88625 -12.25 22.3125 C-11 20 -11 20 -9.15625 17.84375 C-6.60138679 14.47429272 -4.96442188 11.03207268 -3.25 7.1875 C-2.77626953 6.14819336 -2.77626953 6.14819336 -2.29296875 5.08789062 C-1.52231755 3.39479329 -0.76026638 1.69778588 0 0 Z " fill="#B79650" transform="translate(274,114)"/>
<path d="M0 0 C3.88470066 1.71333959 6.16920323 4.07776841 9.0234375 7.1484375 C11.03350549 9.20541104 11.03350549 9.20541104 14.203125 10.6171875 C17 13 17 13 17.48095703 15.09716797 C17.59132092 17.67249637 17.52323742 20.17675039 17.375 22.75 C17.34792969 23.63816406 17.32085937 24.52632812 17.29296875 25.44140625 C17.22236624 27.63008395 17.12385527 29.81379568 17 32 C17.66 32 18.32 32 19 32 C19.33 34.31 19.66 36.62 20 39 C20.66 39 21.32 39 22 39 C22 38.34 22 37.68 22 37 C22.99 37.495 22.99 37.495 24 38 C21.89851796 41.98175544 19.63094642 44.35039045 16 47 C16.66 45.02 17.32 43.04 18 41 C17.2575 40.9175 16.515 40.835 15.75 40.75 C13 40 13 40 11.2578125 38.0625 C8.34555136 35.40216457 5.96024301 35.05828777 2.125 34.25 C-3.4670066 32.73125523 -6.98481754 31.50803106 -10.08984375 26.50390625 C-11.91011991 21.49619371 -11.98389505 16.28242288 -12 11 C-8.16960592 12.27679803 -8.01242585 13.59435626 -6 17 C-4.37163262 18.7041054 -2.71230248 20.38025441 -1 22 C-2.53604696 18.85808576 -4.05731159 15.91403262 -6 13 C-6 12.01 -6 11.02 -6 10 C-5.34 10 -4.68 10 -4 10 C0 15.41176471 0 15.41176471 0 18 C0.66 18 1.32 18 2 18 C2 16.35 2 14.7 2 13 C4 14 6 15 8 16 C6.18221573 12.10336669 4.44839977 8.56049971 1.75 5.1875 C0 3 0 3 0 0 Z " fill="#AA925F" transform="translate(213,93)"/>
<path d="M0 0 C6.0546875 -0.1953125 6.0546875 -0.1953125 8 0 C10 2 10 2 10.1953125 3.9453125 C10.13020833 5.96354167 10.06510417 7.98177083 10 10 C10.66 10 11.32 10 12 10 C13.62109375 12.08203125 13.62109375 12.08203125 15.4375 14.8125 C17.84611068 18.44786342 17.84611068 18.44786342 20.72265625 21.69921875 C22 23 22 23 22 25 C22.556875 25.268125 23.11375 25.53625 23.6875 25.8125 C26.21225334 27.10899496 28.63714484 28.42476323 31 30 C31 30.66 31 31.32 31 32 C20.14447528 33.55982297 20.14447528 33.55982297 16 31 C13.6875 29 13.6875 29 12 27 C12 26.34 12 25.68 12 25 C11.40703125 24.78859375 10.8140625 24.5771875 10.203125 24.359375 C7.18447712 22.49680503 6.30743582 20.41206666 4.75 17.25 C4.22921875 16.22390625 3.7084375 15.1978125 3.171875 14.140625 C1.94587789 10.85495274 1.77115509 8.4742818 2 5 C1.34 5 0.68 5 0 5 C0 3.35 0 1.7 0 0 Z " fill="#D8A94D" transform="translate(186,113)"/>
<path d="M0 0 C2.30288311 2.10096016 2.91270087 3.4039253 3.36328125 6.48046875 C3.0935412 20.8596882 3.0935412 20.8596882 -1 27 C-1.66 27 -2.32 27 -3 27 C-3 27.99 -3 28.98 -3 30 C-6.20527482 33.34015025 -9.26653683 33.46332684 -13.75 33.6875 C-15.50570312 33.78611328 -15.50570312 33.78611328 -17.296875 33.88671875 C-18.18890625 33.92410156 -19.0809375 33.96148437 -20 34 C-19.01 33.505 -19.01 33.505 -18 33 C-18 31.68 -18 30.36 -18 29 C-15.36 29 -12.72 29 -10 29 C-10 28.01 -10 27.02 -10 26 C-7.03186426 22.26234758 -5.95849479 21.99169896 -1 21 C-1 16.38 -1 11.76 -1 7 C-1.99 7 -2.98 7 -4 7 C-4 6.34 -4 5.68 -4 5 C-5.12019531 5.5053125 -6.24039062 6.010625 -7.39453125 6.53125 C-8.86705798 7.18779058 -10.33972139 7.84402466 -11.8125 8.5 C-12.55048828 8.83386719 -13.28847656 9.16773437 -14.04882812 9.51171875 C-15.11713867 9.98544922 -15.11713867 9.98544922 -16.20703125 10.46875 C-16.8616333 10.76201172 -17.51623535 11.05527344 -18.19067383 11.35742188 C-20 12 -20 12 -23 12 C-23.33 12.66 -23.66 13.32 -24 14 C-24.66 13.67 -25.32 13.34 -26 13 C-25.67 12.01 -25.34 11.02 -25 10 C-24.34 9.67 -23.68 9.34 -23 9 C-22.608125 8.236875 -22.21625 7.47375 -21.8125 6.6875 C-16.76732322 -0.79327937 -8.4150458 -1.54654896 0 0 Z " fill="#B59247" transform="translate(266,93)"/>
<path d="M0 0 C0.33 1.32 0.66 2.64 1 4 C0.34 4 -0.32 4 -1 4 C-1 6.64 -1 9.28 -1 12 C-0.34 12.33 0.32 12.66 1 13 C1 13.99 1 14.98 1 16 C7.69675136 17.03026944 14.2314676 17.10152799 21 17 C21 20.3 21 23.6 21 27 C2.76958619 28.00658727 2.76958619 28.00658727 -4 22 C-5.875 19.1875 -5.875 19.1875 -7 17 C-7.99 17 -8.98 17 -10 17 C-10.33 17.99 -10.66 18.98 -11 20 C-11.33 19.34 -11.66 18.68 -12 18 C-10.7260411 15.96166576 -9.38938077 13.96147874 -8 12 C-7.34 12 -6.68 12 -6 12 C-5.855625 11.38125 -5.71125 10.7625 -5.5625 10.125 C-5 8 -5 8 -4 6 C-3.34 6 -2.68 6 -2 6 C-1.855625 5.38125 -1.71125 4.7625 -1.5625 4.125 C-1 2 -1 2 0 0 Z " fill="#564425" transform="translate(243,128)"/>
<path d="M0 0 C0.99 0 1.98 0 3 0 C3 0.66 3 1.32 3 2 C3.66 2.33 4.32 2.66 5 3 C4.34 3 3.68 3 3 3 C4.97913946 6.53417761 6.94237717 9.91676703 9.25 13.25 C11 16 11 16 11 19 C9 18 7 17 5 16 C5.33 17.98 5.66 19.96 6 22 C1.97449681 20.6581656 1.11714364 18.5772427 -1 15 C-1 14.34 -1 13.68 -1 13 C-1.66 13 -2.32 13 -3 13 C-1.46395304 16.14191424 0.05731159 19.08596738 2 22 C2 22.99 2 23.98 2 25 C-1.80489745 23.50521886 -3.66190835 21.30557786 -6 18 C-6.33 17.01 -6.66 16.02 -7 15 C-7.66 14.67 -8.32 14.34 -9 14 C-8.67 16.31 -8.34 18.62 -8 21 C-8.66 21 -9.32 21 -10 21 C-10.33 19.02 -10.66 17.04 -11 15 C-11.66 15 -12.32 15 -13 15 C-13.33 13.02 -13.66 11.04 -14 9 C-12.68 8.67 -11.36 8.34 -10 8 C-10 7.01 -10 6.02 -10 5 C-8.35 5 -6.7 5 -5 5 C-5 4.34 -5 3.68 -5 3 C-3.35 3.33 -1.7 3.66 0 4 C0 2.68 0 1.36 0 0 Z " fill="#2D2515" transform="translate(210,90)"/>
<path d="M0 0 C3.65316671 1.24976756 4.78065836 1.67098753 7 5 C7.31884766 7.4519043 7.31884766 7.4519043 7.4140625 10.32421875 C7.45273438 11.35224609 7.49140625 12.38027344 7.53125 13.43945312 C7.5621875 14.51130859 7.593125 15.58316406 7.625 16.6875 C7.66367188 17.77095703 7.70234375 18.85441406 7.7421875 19.97070312 C7.83650509 22.64696467 7.92210005 25.32321843 8 28 C6.07421875 27.65625 6.07421875 27.65625 4 27 C3.608125 26.175 3.21625 25.35 2.8125 24.5 C1.27839652 21.82127673 1.27839652 21.82127673 -1.1875 21.44921875 C-3.4642027 21.21087644 -5.71186625 21.05276619 -8 21 C-8.33 19.68 -8.66 18.36 -9 17 C-9.66 17 -10.32 17 -11 17 C-9.68822142 14.0737247 -8.24710766 12.24710766 -6 10 C-4.82425289 7.90010348 -4.82425289 7.90010348 -4 6 C-2.35 6 -0.7 6 1 6 C0.67 4.02 0.34 2.04 0 0 Z " fill="#EECA70" transform="translate(222,104)"/>
<path d="M0 0 C0.99 0 1.98 0 3 0 C3 0.99 3 1.98 3 3 C2.34 3 1.68 3 1 3 C1 3.66 1 4.32 1 5 C0.34 5 -0.32 5 -1 5 C-1 7.31 -1 9.62 -1 12 C-1.66 12 -2.32 12 -3 12 C-3.66 13.98 -4.32 15.96 -5 18 C-5.66 18 -6.32 18 -7 18 C-7.28875 18.5775 -7.5775 19.155 -7.875 19.75 C-8.91666667 21.83333333 -9.95833333 23.91666667 -11 26 C-11.66 26 -12.32 26 -13 26 C-13.185625 26.61875 -13.37125 27.2375 -13.5625 27.875 C-15.27010421 30.39928448 -16.72414828 30.98601682 -19.6484375 31.6953125 C-24.73674018 32.35459424 -29.88149329 32.13854605 -35 32 C-35 30.68 -35 29.36 -35 28 C-34.16855469 27.79503906 -33.33710938 27.59007812 -32.48046875 27.37890625 C-31.39378906 27.10949219 -30.30710938 26.84007812 -29.1875 26.5625 C-28.10855469 26.29566406 -27.02960938 26.02882812 -25.91796875 25.75390625 C-23.9259157 25.23922588 -21.95188476 24.65062825 -20 24 C-20 23.34 -20 22.68 -20 22 C-19.01 22 -18.02 22 -17 22 C-17 21.34 -17 20.68 -17 20 C-16.34 20 -15.68 20 -15 20 C-15 19.34 -15 18.68 -15 18 C-13.34928604 16.97388051 -11.68029994 15.97691857 -10 15 C-6.96389027 12.54775753 -5.63374373 9.50087943 -4 6 C-3.34 6 -2.68 6 -2 6 C-2 5.34 -2 4.68 -2 4 C-1.34 4 -0.68 4 0 4 C0 2.68 0 1.36 0 0 Z " fill="#DAC780" transform="translate(242,122)"/>
<path d="M0 0 C1.32 0 2.64 0 4 0 C4 0.66 4 1.32 4 2 C4.66 2 5.32 2 6 2 C6 3.98 6 5.96 6 8 C6.66 8 7.32 8 8 8 C8 9.32 8 10.64 8 12 C8.66 12 9.32 12 10 12 C10 14.64 10 17.28 10 20 C4.39 20 -1.22 20 -7 20 C-7 15.59714577 -6.73734147 13.80043446 -5 10 C-4.34 10 -3.68 10 -3 10 C-2.67 8.02 -2.34 6.04 -2 4 C-1.34 4 -0.68 4 0 4 C0 2.68 0 1.36 0 0 Z " fill="#020202" transform="translate(276,181)"/>
<path d="M0 0 C2.16874252 0.50603992 3.99967627 0.99983813 6 2 C6 2.66 6 3.32 6 4 C1.00703705 6.9445679 -3.33557626 7.63495936 -9 8 C-9 9.32 -9 10.64 -9 12 C-6.08014262 11.77169839 -3.16621546 11.51836339 -0.25 11.25 C0.9875 11.1571875 0.9875 11.1571875 2.25 11.0625 C7.23992531 10.61986759 7.23992531 10.61986759 11.390625 7.984375 C11.92171875 7.32953125 12.4528125 6.6746875 13 6 C13.99 5.67 14.98 5.34 16 5 C16.33 4.34 16.66 3.68 17 3 C17.99 3 18.98 3 20 3 C20.33 2.34 20.66 1.68 21 1 C21.495 3.97 21.495 3.97 22 7 C21.278125 6.896875 20.55625 6.79375 19.8125 6.6875 C15.86740058 7.12584438 14.64495136 9.15159084 12 12 C8.56063444 14.1730537 5.04941851 14.65430246 1.0625 15.25 C-0.14277344 15.44078125 -1.34804687 15.6315625 -2.58984375 15.828125 C-6.08903698 16.00448755 -7.92926828 15.6060549 -11 14 C-12 13 -12 13 -12.09765625 11.15234375 C-12.06510417 9.1015625 -12.03255208 7.05078125 -12 5 C-12.66 5 -13.32 5 -14 5 C-14.33 3.68 -14.66 2.36 -15 1 C-13.845 1.33 -12.69 1.66 -11.5 2 C-7.22499413 3.08401934 -3.39638547 3.15701377 1 3 C0.67 2.01 0.34 1.02 0 0 Z " fill="#1F1205" transform="translate(216,142)"/>
<path d="M0 0 C1.32 0 2.64 0 4 0 C4 0.99 4 1.98 4 3 C4.598125 3.12375 5.19625 3.2475 5.8125 3.375 C8 4 8 4 11 6 C13.04869074 6.44429438 15.11454293 6.81294195 17.1875 7.125 C18.81751953 7.37636719 18.81751953 7.37636719 20.48046875 7.6328125 C21.72763672 7.81457031 21.72763672 7.81457031 23 8 C23 9.32 23 10.64 23 12 C15.2621657 12.32290808 8.07634645 12.53007672 1 9 C0.34 8.34 -0.32 7.68 -1 7 C-0.625 3.375 -0.625 3.375 0 0 Z " fill="#B8985C" transform="translate(239,142)"/>
<path d="M0 0 C2.48029741 2.2070006 2.94734511 3.49732129 3.29296875 6.796875 C3.25816406 7.77140625 3.22335937 8.7459375 3.1875 9.75 C3.16042969 10.73484375 3.13335937 11.7196875 3.10546875 12.734375 C3.07066406 13.48203125 3.03585937 14.2296875 3 15 C2.67 15 2.34 15 2 15 C1.896875 13.783125 1.79375 12.56625 1.6875 11.3125 C1.23780688 7.58930552 0.21617222 5.08337005 -2 2 C-4.75641416 2.49756092 -4.75641416 2.49756092 -7 4 C-8.66617115 4.04063832 -10.33388095 4.042721 -12 4 C-12 4.66 -12 5.32 -12 6 C-13.64556566 7.03435556 -15.3170608 8.02763513 -17 9 C-18.68477344 10.31037934 -20.35648543 11.63823078 -22 13 C-22.33 12.67 -22.66 12.34 -23 12 C-23.33 12.66 -23.66 13.32 -24 14 C-24.66 13.67 -25.32 13.34 -26 13 C-25.67 12.01 -25.34 11.02 -25 10 C-24.34 9.67 -23.68 9.34 -23 9 C-22.608125 8.236875 -22.21625 7.47375 -21.8125 6.6875 C-16.76732322 -0.79327937 -8.4150458 -1.54654896 0 0 Z " fill="#6F5836" transform="translate(266,93)"/>
<path d="M0 0 C0.66 0 1.32 0 2 0 C2 0.99 2 1.98 2 3 C1.01 3 0.02 3 -1 3 C-1 3.66 -1 4.32 -1 5 C-1.66 5 -2.32 5 -3 5 C-3.33 6.65 -3.66 8.3 -4 10 C-2.02 9.67 -0.04 9.34 2 9 C-0.91455459 12.34634046 -2.63520319 13.41148807 -7 14 C-9.26995419 14.06652855 -11.54168695 14.08543751 -13.8125 14.0625 C-14.97394531 14.05347656 -16.13539063 14.04445312 -17.33203125 14.03515625 C-18.21246094 14.02355469 -19.09289062 14.01195312 -20 14 C-20 12.68 -20 11.36 -20 10 C-19.16855469 9.79503906 -18.33710938 9.59007812 -17.48046875 9.37890625 C-15.85044922 8.97478516 -15.85044922 8.97478516 -14.1875 8.5625 C-13.10855469 8.29566406 -12.02960938 8.02882812 -10.91796875 7.75390625 C-8.9259157 7.23922588 -6.95188476 6.65062825 -5 6 C-5 5.34 -5 4.68 -5 4 C-4.01 4 -3.02 4 -2 4 C-2 3.34 -2 2.68 -2 2 C-1.34 2 -0.68 2 0 2 C0 1.34 0 0.68 0 0 Z " fill="#A4864D" transform="translate(227,140)"/>
<path d="M0 0 C2 1.375 2 1.375 4 3 C4 3.66 4 4.32 4 5 C4.556875 5.268125 5.11375 5.53625 5.6875 5.8125 C8.21225334 7.10899496 10.63714484 8.42476323 13 10 C13 10.66 13 11.32 13 12 C2.14447528 13.55982297 2.14447528 13.55982297 -2 11 C-4.3125 8.875 -4.3125 8.875 -6 7 C-5.67 6.34 -5.34 5.68 -5 5 C-4.01 5 -3.02 5 -2 5 C-1.34 3.35 -0.68 1.7 0 0 Z " fill="#A6894D" transform="translate(204,133)"/>
<path d="M0 0 C0.99 0 1.98 0 3 0 C3 0.66 3 1.32 3 2 C3.66 2.33 4.32 2.66 5 3 C4.34 3 3.68 3 3 3 C4.97913946 6.53417761 6.94237717 9.91676703 9.25 13.25 C11 16 11 16 11 19 C3.7950281 17.03500766 0.76707498 13.32330443 -3 7 C-3 6.01 -3 5.02 -3 4 C-2.01 4 -1.02 4 0 4 C0 2.68 0 1.36 0 0 Z " fill="#523D15" transform="translate(210,90)"/>
<path d="M0 0 C6.0546875 -0.1953125 6.0546875 -0.1953125 8 0 C10 2 10 2 10.1953125 3.9453125 C10.13020833 5.96354167 10.06510417 7.98177083 10 10 C10.66 10 11.32 10 12 10 C13.5078125 12.1875 13.5078125 12.1875 15.125 15 C15.66382813 15.928125 16.20265625 16.85625 16.7578125 17.8125 C17.16773438 18.534375 17.57765625 19.25625 18 20 C13.1484375 18.2578125 13.1484375 18.2578125 11.8125 15.9375 C11.4103125 14.9784375 11.4103125 14.9784375 11 14 C10.34 13.67 9.68 13.34 9 13 C9 11.02 9 9.04 9 7 C8.34 7 7.68 7 7 7 C7 6.34 7 5.68 7 5 C6.01 5 5.02 5 4 5 C4.66 8.63 5.32 12.26 6 16 C3.38726012 14.69363006 3.02763876 13.71590242 2 11 C1.875 7.75 1.875 7.75 2 5 C1.34 5 0.68 5 0 5 C0 3.35 0 1.7 0 0 Z " fill="#BB9754" transform="translate(186,113)"/>
<path d="M0 0 C0.95465783 2.16967689 1.14401212 3.56328793 0.3984375 5.82421875 C-0.35870385 7.5684743 -1.17609198 9.28627131 -2 11 C-2.66 11 -3.32 11 -4 11 C-4 11.99 -4 12.98 -4 14 C-7.20527482 17.34015025 -10.26653683 17.46332684 -14.75 17.6875 C-16.50570312 17.78611328 -16.50570312 17.78611328 -18.296875 17.88671875 C-19.63492188 17.94279297 -19.63492188 17.94279297 -21 18 C-20.34 17.67 -19.68 17.34 -19 17 C-19 15.68 -19 14.36 -19 13 C-16.36 13 -13.72 13 -11 13 C-11 12.01 -11 11.02 -11 10 C-6.5 8.5 -6.5 8.5 -2 7 C-0.77030122 3.48809191 -0.77030122 3.48809191 0 0 Z " fill="#745B2D" transform="translate(267,109)"/>
<path d="M0 0 C6.93 0 13.86 0 21 0 C20.67 0.99 20.34 1.98 20 3 C19.34 3 18.68 3 18 3 C18 3.66 18 4.32 18 5 C12.39 5 6.78 5 1 5 C1 4.34 1 3.68 1 3 C0.34 3 -0.32 3 -1 3 C-0.67 2.01 -0.34 1.02 0 0 Z " fill="#0C0C0C" transform="translate(149,206)"/>
<path d="M0 0 C1.65 0 3.3 0 5 0 C5 2.97 5 5.94 5 9 C4.34 9 3.68 9 3 9 C3 9.99 3 10.98 3 12 C2.34 12 1.68 12 1 12 C0.7525 12.78375 0.505 13.5675 0.25 14.375 C-1.15389099 17.32317108 -2.00675737 17.9024777 -5 19 C-4.71125 18.21625 -4.4225 17.4325 -4.125 16.625 C-2.95668522 12.86043017 -2.18418605 9.13971175 -1.46484375 5.26953125 C-1 3 -1 3 0 0 Z " fill="#D9A34B" transform="translate(275,115)"/>
<path d="M0 0 C2.483164 2.10246987 3.85780753 3.33177169 4.54589844 6.56542969 C4.5668457 7.50805664 4.58779297 8.45068359 4.609375 9.421875 C4.64160156 10.44667969 4.67382812 11.47148438 4.70703125 12.52734375 C4.72121094 13.59082031 4.73539063 14.65429688 4.75 15.75 C4.77964844 16.82894531 4.80929688 17.90789062 4.83984375 19.01953125 C4.91046936 21.67976244 4.96320196 24.33912102 5 27 C3.07421875 26.65625 3.07421875 26.65625 1 26 C0.608125 25.175 0.21625 24.35 -0.1875 23.5 C-1.71345385 20.81455105 -1.71345385 20.81455105 -4.15234375 20.51953125 C-5.7782564 20.38339638 -7.4082312 20.28842008 -9.0390625 20.23828125 C-10.00972656 20.12033203 -10.00972656 20.12033203 -11 20 C-11.33 19.34 -11.66 18.68 -12 18 C-10.20793453 18.14084796 -8.41635083 18.28783701 -6.625 18.4375 C-5.12839844 18.55931641 -5.12839844 18.55931641 -3.6015625 18.68359375 C-1 19 -1 19 1 20 C0.979375 19.195625 0.95875 18.39125 0.9375 17.5625 C1 15 1 15 2 14 C1.78633888 9.29945543 1.03548394 4.58571459 0 0 Z " fill="#CFB879" transform="translate(225,105)"/>
<path d="M0 0 C3 0 3 0 4.625 1.5625 C6.3716507 4.65883532 6.49998628 7.49990395 7 11 C8.48800372 13.2072358 8.48800372 13.2072358 10 15 C10 15.99 10 16.98 10 18 C6.19510255 16.50521886 4.33809165 14.30557786 2 11 C1.67 10.01 1.34 9.02 1 8 C0.34 7.67 -0.32 7.34 -1 7 C-1.33 7.99 -1.66 8.98 -2 10 C-3.4606285 7.35261084 -4 6.10551666 -4 3 C-2.68 3.33 -1.36 3.66 0 4 C0 2.68 0 1.36 0 0 Z " fill="#523E24" transform="translate(202,97)"/>
<path d="M0 0 C2.16874252 0.50603992 3.99967627 0.99983813 6 2 C6 2.66 6 3.32 6 4 C1.00703705 6.9445679 -3.33557626 7.63495936 -9 8 C-9 9.32 -9 10.64 -9 12 C-4.05 11.67 0.9 11.34 6 11 C5.67 11.66 5.34 12.32 5 13 C0.05 13 -4.9 13 -10 13 C-11 8 -11 8 -10 5 C-10.33 4.34 -10.66 3.68 -11 3 C-7.04 3 -3.08 3 1 3 C0.67 2.01 0.34 1.02 0 0 Z " fill="#4E3C1E" transform="translate(216,142)"/>
<path d="M0 0 C2.48046875 0.89453125 2.48046875 0.89453125 5 3 C5.65807794 6.23587437 5.46871517 9.40217488 5.3125 12.6875 C5.27866211 14.02651367 5.27866211 14.02651367 5.24414062 15.39257812 C5.18520574 17.59674272 5.10300818 19.79752672 5 22 C5.66 22 6.32 22 7 22 C7.33 24.31 7.66 26.62 8 29 C8.66 29 9.32 29 10 29 C10 28.34 10 27.68 10 27 C10.66 27.33 11.32 27.66 12 28 C9.89851796 31.98175544 7.63094642 34.35039045 4 37 C4.66 35.02 5.32 33.04 6 31 C4.35 30.67 2.7 30.34 1 30 C1 29.01 1 28.02 1 27 C2.32 27.66 3.64 28.32 5 29 C4.84273437 28.36191406 4.68546875 27.72382813 4.5234375 27.06640625 C3.70103391 22.24859417 3.68007833 17.38651839 3.5703125 12.50585938 C3.39216617 8.03364412 3.17583453 5.405106 0 2 C0 1.34 0 0.68 0 0 Z " fill="#6B5D39" transform="translate(225,103)"/>
<path d="M0 0 C2.97 0 5.94 0 9 0 C9.71969331 6.62117849 7.52844262 11.41864532 4 17 C3.34 17.33 2.68 17.66 2 18 C2.66 15.36 3.32 12.72 4 10 C4.66 10 5.32 10 6 10 C6 7.03 6 4.06 6 1 C4.35 1 2.7 1 1 1 C0.34 4.3 -0.32 7.6 -1 11 C-1.66 11 -2.32 11 -3 11 C-3.061875 11.5775 -3.12375 12.155 -3.1875 12.75 C-4.32027301 15.88690987 -6.34197595 17.09167504 -9 19 C-8.74476563 18.49984375 -8.48953125 17.9996875 -8.2265625 17.484375 C-6.55473463 14.09812493 -4.96734703 10.67419342 -3.375 7.25 C-2.88773437 6.20392578 -2.88773437 6.20392578 -2.390625 5.13671875 C-1.59325162 3.4247112 -0.79655814 1.71238701 0 0 Z " fill="#8E7244" transform="translate(274,114)"/>
<path d="M0 0 C3.12322012 2.08214674 3.50361056 2.67893305 4.875 5.9375 C6.68435041 9.6781795 7.97750486 11.48039072 12 13 C14.34112063 13.33328453 16.6505626 13.56045137 19.01171875 13.69140625 C21 14 21 14 23 16 C22.67 16.99 22.34 17.98 22 19 C5.90434618 15.02387649 5.90434618 15.02387649 2 10.0625 C-0.01316631 6.6837145 -0.59353485 3.95689901 0 0 Z " fill="#453318" transform="translate(202,111)"/>
<path d="M0 0 C0.66 0 1.32 0 2 0 C6 5.41176471 6 5.41176471 6 8 C6.66 8.33 7.32 8.66 8 9 C7.34 9 6.68 9 6 9 C6 10.32 6 11.64 6 13 C4.35 12.67 2.7 12.34 1 12 C0.01 13.485 0.01 13.485 -1 15 C-1.45375 14.071875 -1.9075 13.14375 -2.375 12.1875 C-3.9421633 8.96078611 -3.9421633 8.96078611 -6 6 C-6.125 3.3125 -6.125 3.3125 -6 1 C-2.16960592 2.27679803 -2.01242585 3.59435626 0 7 C1.62836738 8.7041054 3.28769752 10.38025441 5 12 C3.46395304 8.85808576 1.94268841 5.91403262 0 3 C0 2.01 0 1.02 0 0 Z " fill="#A88955" transform="translate(207,103)"/>
<path d="M0 0 C0.33 0.99 0.66 1.98 1 3 C-0.051875 3.02126953 -0.051875 3.02126953 -1.125 3.04296875 C-7.76677108 3.37686213 -13.00586677 4.35633226 -18 9 C-19.21407891 11.07706827 -19.21407891 11.07706827 -20 13 C-20.66 13 -21.32 13 -22 13 C-22.33 14.32 -22.66 15.64 -23 17 C-23.33 17 -23.66 17 -24 17 C-24 15.35 -24 13.7 -24 12 C-23.34 12 -22.68 12 -22 12 C-22 11.34 -22 10.68 -22 10 C-21.34 10 -20.68 10 -20 10 C-20 9.01 -20 8.02 -20 7 C-18.68 6.67 -17.36 6.34 -16 6 C-16 5.34 -16 4.68 -16 4 C-10.92987368 -0.53642881 -6.61051259 -0.47031315 0 0 Z " fill="#221308" transform="translate(263,90)"/>
<path d="M0 0 C1.32 0 2.64 0 4 0 C4 0.99 4 1.98 4 3 C4.66 3 5.32 3 6 3 C6 4.32 6 5.64 6 7 C7.32 7 8.64 7 10 7 C9.67 7.99 9.34 8.98 9 10 C1.25 9.25 1.25 9.25 -1 7 C-0.625 3.375 -0.625 3.375 0 0 Z " fill="#D7BF71" transform="translate(239,142)"/>
<path d="M0 0 C0 0.99 0 1.98 0 3 C0.99 3.66 1.98 4.32 3 5 C1.13556076 8.54243456 -0.12119689 10.70706563 -4 12 C-5.32 12 -6.64 12 -8 12 C-7.67 10.35 -7.34 8.7 -7 7 C-6.34 7 -5.68 7 -5 7 C-5 6.34 -5 5.68 -5 5 C-4.01 5 -3.02 5 -2 5 C-1.855625 4.360625 -1.71125 3.72125 -1.5625 3.0625 C-1 1 -1 1 0 0 Z " fill="#D9B871" transform="translate(231,138)"/>
<path d="M0 0 C6.27 0 12.54 0 19 0 C18.67 0.99 18.34 1.98 18 3 C12.06 3 6.12 3 0 3 C0 2.01 0 1.02 0 0 Z " fill="#101010" transform="translate(146,218)"/>
<path d="M0 0 C0.33 0 0.66 0 1 0 C1.20625 0.9075 1.4125 1.815 1.625 2.75 C3.53135701 9.44282174 6.67307338 17.35682814 12 22 C10.68 22.33 9.36 22.66 8 23 C2.74966412 15.68703217 -0.66591753 9.156366 0 0 Z " fill="#5B431C" transform="translate(187,118)"/>
<path d="M0 0 C1.59412284 3.18824568 1.10174735 6.62896662 1.0625 10.125 C1.05798828 10.87910156 1.05347656 11.63320312 1.04882812 12.41015625 C1.03703499 14.27347127 1.01909942 16.13674555 1 18 C0.34 18 -0.32 18 -1 18 C-1 19.32 -1 20.64 -1 22 C-1.66 22 -2.32 22 -3 22 C-3 22.66 -3 23.32 -3 24 C-3.99 24.33 -4.98 24.66 -6 25 C-6 23.02 -6 21.04 -6 19 C-5.01 19 -4.02 19 -3 19 C-1.15892054 15.31784107 -1.584971 10.75808226 -1.39453125 6.67773438 C-1.10073855 1.10073855 -1.10073855 1.10073855 0 0 Z " fill="#382A18" transform="translate(238,108)"/>
<path d="M0 0 C0.80566406 0.00257812 1.61132812 0.00515625 2.44140625 0.0078125 C3.64603516 0.00394531 3.64603516 0.00394531 4.875 0 C7.00390625 0.1328125 7.00390625 0.1328125 9.00390625 1.1328125 C9.56755284 11.88384926 9.56755284 11.88384926 6.00390625 16.1328125 C5.34390625 16.4628125 4.68390625 16.7928125 4.00390625 17.1328125 C4.43703125 15.92625 4.43703125 15.92625 4.87890625 14.6953125 C6.19145819 10.53889804 7.09956207 6.39614937 8.00390625 2.1328125 C5.03390625 2.1328125 2.06390625 2.1328125 -0.99609375 2.1328125 C-1.32609375 3.7828125 -1.65609375 5.4328125 -1.99609375 7.1328125 C-2.32609375 7.1328125 -2.65609375 7.1328125 -2.99609375 7.1328125 C-3.03863731 5.13326504 -3.03690158 3.13239614 -2.99609375 1.1328125 C-1.99609375 0.1328125 -1.99609375 0.1328125 0 0 Z " fill="#2A1E0D" transform="translate(274.99609375,111.8671875)"/>
<path d="M0 0 C0.33 1.32 0.66 2.64 1 4 C0.34 4 -0.32 4 -1 4 C-1 4.99 -1 5.98 -1 7 C-1.66 7 -2.32 7 -3 7 C-3 7.99 -3 8.98 -3 10 C-3.66 10 -4.32 10 -5 10 C-4.690625 11.36125 -4.690625 11.36125 -4.375 12.75 C-3.9872755 16.11027897 -4.19588033 17.24075815 -6 20 C-6.33 19.01 -6.66 18.02 -7 17 C-7.99 17 -8.98 17 -10 17 C-10.33 17.99 -10.66 18.98 -11 20 C-11.33 19.34 -11.66 18.68 -12 18 C-10.7260411 15.96166576 -9.38938077 13.96147874 -8 12 C-7.34 12 -6.68 12 -6 12 C-5.855625 11.38125 -5.71125 10.7625 -5.5625 10.125 C-5 8 -5 8 -4 6 C-3.34 6 -2.68 6 -2 6 C-1.855625 5.38125 -1.71125 4.7625 -1.5625 4.125 C-1 2 -1 2 0 0 Z " fill="#6E5D34" transform="translate(243,128)"/>
<path d="M0 0 C0.33 0.99 0.66 1.98 1 3 C-2.43535849 6.17175425 -5.15330091 6.45766505 -9.75 6.6875 C-10.92046875 6.75324219 -12.0909375 6.81898437 -13.296875 6.88671875 C-14.18890625 6.92410156 -15.0809375 6.96148437 -16 7 C-15.34 6.67 -14.68 6.34 -14 6 C-14 4.68 -14 3.36 -14 2 C-11.36 2 -8.72 2 -6 2 C-6.33 2.66 -6.66 3.32 -7 4 C-4.61435923 3.42415568 -2.33317216 2.77772405 0 2 C0 1.34 0 0.68 0 0 Z " fill="#6B582E" transform="translate(262,120)"/>
<path d="M0 0 C1.32 0.66 2.64 1.32 4 2 C2.02 4.31 0.04 6.62 -2 9 C-1.01 8.67 -0.02 8.34 1 8 C0.67 8.99 0.34 9.98 0 11 C-1.875 10.6875 -1.875 10.6875 -4 10 C-6.1519437 6.77208445 -6.20086443 5.71599191 -6 2 C-4.02 2.66 -2.04 3.32 0 4 C0 2.68 0 1.36 0 0 Z " fill="#CCAB5D" transform="translate(213,112)"/>
<path d="M0 0 C1.98 1.32 3.96 2.64 6 4 C5.34 5.98 4.68 7.96 4 10 C2.68 9.67 1.36 9.34 0 9 C-0.33 7.68 -0.66 6.36 -1 5 C-1.66 5 -2.32 5 -3 5 C-3 4.34 -3 3.68 -3 3 C-2.01 3 -1.02 3 0 3 C0 2.01 0 1.02 0 0 Z " fill="#D4AC5A" transform="translate(198,129)"/>
<path d="M0 0 C0.33 0.99 0.66 1.98 1 3 C-3.95 3.33 -8.9 3.66 -14 4 C-14 3.01 -14 2.02 -14 1 C-9.32798795 -0.20568053 -4.78503708 -0.09382426 0 0 Z " fill="#C29359" transform="translate(221,149)"/>
<path d="M0 0 C1.65 0 3.3 0 5 0 C5 2.97 5 5.94 5 9 C4.34 9 3.68 9 3 9 C2.67 8.01 2.34 7.02 2 6 C0.68 6.33 -0.64 6.66 -2 7 C-1.34 4.69 -0.68 2.38 0 0 Z " fill="#D29C4E" transform="translate(275,115)"/>
<path d="M0 0 C1.62566606 0.47690204 3.25051311 0.95659666 4.875 1.4375 C5.77992188 1.70433594 6.68484375 1.97117188 7.6171875 2.24609375 C10 3 10 3 12 4 C12 4.66 12 5.32 12 6 C8.37 6 4.74 6 1 6 C0.67 4.02 0.34 2.04 0 0 Z " fill="#D5B26C" transform="translate(204,138)"/>
<path d="M0 0 C4.29 0 8.58 0 13 0 C13.33 0.99 13.66 1.98 14 3 C10.37 3 6.74 3 3 3 C3 2.34 3 1.68 3 1 C0.525 2.485 0.525 2.485 -2 4 C-1.34 2.68 -0.68 1.36 0 0 Z " fill="#151515" transform="translate(134,167)"/>
<path d="M0 0 C2.64 0 5.28 0 8 0 C8 0.66 8 1.32 8 2 C8.66 2 9.32 2 10 2 C11.29243536 6.1196377 12.26252625 9.66831683 12 14 C11.67 13.34 11.34 12.68 11 12 C10.34 12 9.68 12 9 12 C8.77213542 9.94921875 8.54427083 7.8984375 8.31640625 5.84765625 C8.18113386 3.98859771 8.18113386 3.98859771 7 3 C5.65252916 2.76924918 4.29622435 2.58846937 2.9375 2.4375 C1.638125 2.293125 0.33875 2.14875 -1 2 C-0.67 1.34 -0.34 0.68 0 0 Z " fill="#2D1E0C" transform="translate(187,111)"/>
<path d="M0 0 C2.45581055 1.1262207 2.45581055 1.1262207 5 3 C5.65942383 5.72729492 5.65942383 5.72729492 5.70703125 8.98046875 C5.73603516 10.14384766 5.76503906 11.30722656 5.79492188 12.50585938 C5.80072266 13.72080078 5.80652344 14.93574219 5.8125 16.1875 C5.83763672 17.41404297 5.86277344 18.64058594 5.88867188 19.90429688 C5.94766454 22.9365198 5.98385681 25.96729509 6 29 C5.67 29 5.34 29 5 29 C3.66288382 23.57481551 3.69532086 18.06426699 3.5703125 12.50585938 C3.39216617 8.03364412 3.17583453 5.405106 0 2 C0 1.34 0 0.68 0 0 Z " fill="#574A29" transform="translate(225,103)"/>
<path d="M0 0 C0.33 0 0.66 0 1 0 C1.33 1.98 1.66 3.96 2 6 C1.319375 5.896875 0.63875 5.79375 -0.0625 5.6875 C-3.77325364 6.08226103 -5.39810022 7.58394962 -8.28515625 9.8203125 C-10.44848149 11.30852257 -12.40194098 11.76381282 -15 12 C-13.50529266 9.01058532 -10.92442937 8.46221468 -8 7 C-7.67 6.34 -7.34 5.68 -7 5 C-6.01 4.67 -5.02 4.34 -4 4 C-3.67 3.34 -3.34 2.68 -3 2 C-2.01 2 -1.02 2 0 2 C0 1.34 0 0.68 0 0 Z " fill="#35240F" transform="translate(236,143)"/>
<path d="M0 0 C0.33 0.66 0.66 1.32 1 2 C-1.64 2 -4.28 2 -7 2 C-7 3.32 -7 4.64 -7 6 C-7.66 6 -8.32 6 -9 6 C-9 6.66 -9 7.32 -9 8 C-9.99 8 -10.98 8 -12 8 C-12.33 8.99 -12.66 9.98 -13 11 C-13.33 9.68 -13.66 8.36 -14 7 C-13.34 7 -12.68 7 -12 7 C-12 6.34 -12 5.68 -12 5 C-11.34 5 -10.68 5 -10 5 C-10 4.01 -10 3.02 -10 2 C-6.7 1.34 -3.4 0.68 0 0 Z " fill="#C6AC66" transform="translate(255,120)"/>
<path d="M0 0 C3.48838175 1.16279392 3.7762603 1.81767437 5.5625 4.875 C6.18318359 5.92300781 6.18318359 5.92300781 6.81640625 6.9921875 C7.20699219 7.65476562 7.59757813 8.31734375 8 9 C8.99 10.485 8.99 10.485 10 12 C9.01 12.33 8.02 12.66 7 13 C5.82479354 11.40207898 4.66008753 9.79643092 3.5 8.1875 C2.8503125 7.29417969 2.200625 6.40085937 1.53125 5.48046875 C0 3 0 3 0 0 Z " fill="#6A5D40" transform="translate(207,94)"/>
<path d="M0 0 C1.32 0 2.64 0 4 0 C4 0.66 4 1.32 4 2 C3.01 2.66 2.02 3.32 1 4 C0.27617533 6.05925139 0.27617533 6.05925139 0 8 C-0.99 8 -1.98 8 -3 8 C-3.33 8.66 -3.66 9.32 -4 10 C-4.66 9.67 -5.32 9.34 -6 9 C-5.67 8.01 -5.34 7.02 -5 6 C-4.34 5.67 -3.68 5.34 -3 5 C-2.54625 4.154375 -2.0925 3.30875 -1.625 2.4375 C-1.08875 1.633125 -0.5525 0.82875 0 0 Z " fill="#70613E" transform="translate(246,97)"/>
<path d="M0 0 C1.95979427 0.28168297 3.91782378 0.57566717 5.875 0.875 C7.51082031 1.11863281 7.51082031 1.11863281 9.1796875 1.3671875 C12 2 12 2 14 4 C13.67 4.99 13.34 5.98 13 7 C11.20414803 6.4083899 9.41340371 5.80125808 7.625 5.1875 C6.12839844 4.68283203 6.12839844 4.68283203 4.6015625 4.16796875 C2 3 2 3 0 0 Z " fill="#826E3D" transform="translate(211,123)"/>
<path d="M0 0 C0.33 0 0.66 0 1 0 C1.71969331 6.62117849 -0.47155738 11.41864532 -4 17 C-4.66 17.33 -5.32 17.66 -6 18 C-5.34 15.36 -4.68 12.72 -4 10 C-3.34 10 -2.68 10 -2 10 C-2.061875 8.081875 -2.061875 8.081875 -2.125 6.125 C-2.1953125 3.9453125 -2.1953125 3.9453125 -2 2 C-1.34 1.34 -0.68 0.68 0 0 Z " fill="#775D2E" transform="translate(282,114)"/>
<path d="M0 0 C2.31 0 4.62 0 7 0 C6.67 0.66 6.34 1.32 6 2 C4.35 2 2.7 2 1 2 C1 2.66 1 3.32 1 4 C-1.63892176 5.78305524 -3.97178863 6.99059621 -7 8 C-6.34 6.68 -5.68 5.36 -5 4 C-4.34 4 -3.68 4 -3 4 C-3 3.34 -3 2.68 -3 2 C-2.01 2 -1.02 2 0 2 C0 1.34 0 0.68 0 0 Z " fill="#7B5F22" transform="translate(253,95)"/>
<path d="M0 0 C1.32 0 2.64 0 4 0 C8 5 8 5 8 9 C4.20620942 7.50958227 2.31656242 5.30937488 0 2 C0 1.34 0 0.68 0 0 Z " fill="#5E3C19" transform="translate(204,106)"/>
<path d="M0 0 C0.99 0 1.98 0 3 0 C3 0.66 3 1.32 3 2 C3.66 2.33 4.32 2.66 5 3 C4.34 3 3.68 3 3 3 C3.33 5.31 3.66 7.62 4 10 C1.4375 7.8125 1.4375 7.8125 -1 5 C-0.8125 2.1875 -0.8125 2.1875 0 0 Z " fill="#3E321E" transform="translate(210,90)"/>
<path d="M0 0 C1.984375 1.484375 1.984375 1.484375 4 4 C4.2906124 6.89449949 4.38186045 9.37949935 4.25 12.25 C4.23195312 12.99507812 4.21390625 13.74015625 4.1953125 14.5078125 C4.14835649 16.33909701 4.07661652 18.16971649 4 20 C3.67 20 3.34 20 3 20 C2.86722656 18.97519531 2.73445312 17.95039062 2.59765625 16.89453125 C2.41935912 15.5338426 2.24096877 14.17316615 2.0625 12.8125 C1.97548828 12.13896484 1.88847656 11.46542969 1.79882812 10.77148438 C1.32174523 7.14918834 0.76987965 3.57196415 0 0 Z " fill="#A8975E" transform="translate(225,105)"/>
<path d="M0 0 C6.0546875 -0.1953125 6.0546875 -0.1953125 8 0 C8.66 0.66 9.32 1.32 10 2 C9.625 4.125 9.625 4.125 9 6 C9 5.01 9 4.02 9 3 C6.69 2.67 4.38 2.34 2 2 C2 2.99 2 3.98 2 5 C1.34 5 0.68 5 0 5 C0 3.35 0 1.7 0 0 Z " fill="#745D3E" transform="translate(186,113)"/>
<path d="M0 0 C2.12038635 2.61514317 4.13091744 5.19637616 6 8 C5.67 8.99 5.34 9.98 5 11 C1.94259517 8.24833565 0.15249839 5.98135808 -1 2 C-0.67 1.34 -0.34 0.68 0 0 Z " fill="#4B3B17" transform="translate(210,101)"/>
<path d="M0 0 C2.475 0.99 2.475 0.99 5 2 C4.01 3.485 4.01 3.485 3 5 C2.60986284 6.9896995 2.26797351 8.99019869 2 11 C1.34 11 0.68 11 0 11 C0 7.37 0 3.74 0 0 Z " fill="#E6CF7B" transform="translate(240,108)"/>
<path d="M0 0 C0.66 0 1.32 0 2 0 C6 5.41176471 6 5.41176471 6 8 C6.66 8.33 7.32 8.66 8 9 C7.34 9 6.68 9 6 9 C5.67 9.99 5.34 10.98 5 12 C4.54625 11.071875 4.0925 10.14375 3.625 9.1875 C2.0578367 5.96078611 2.0578367 5.96078611 0 3 C0 2.01 0 1.02 0 0 Z " fill="#866E43" transform="translate(207,103)"/>
<path d="M0 0 C1.98 0.495 1.98 0.495 4 1 C3.01 1 2.02 1 1 1 C1 2.65 1 4.3 1 6 C2.32 6.33 3.64 6.66 5 7 C4.67 7.99 4.34 8.98 4 10 C2.35 9.01 0.7 8.02 -1 7 C-0.67 4.69 -0.34 2.38 0 0 Z " fill="#A18F5D" transform="translate(239,142)"/>
<path d="M0 0 C-3.7559214 3.42931954 -8.23466745 4.56429083 -13 6 C-8.97775189 0.59076978 -6.66421473 -0.14809366 0 0 Z " fill="#C8A24B" transform="translate(260,98)"/>
<path d="M0 0 C2.31 0.33 4.62 0.66 7 1 C7 1.66 7 2.32 7 3 C3.91190305 4.76462683 2.76687864 5 -1 5 C-0.67 3.35 -0.34 1.7 0 0 Z " fill="#D1B168" transform="translate(224,145)"/>
<path d="M0 0 C0.99 0.33 1.98 0.66 3 1 C3 1.99 3 2.98 3 4 C0.04335481 5.4783226 -2.74229737 5.06032783 -6 5 C-5.34 4.67 -4.68 4.34 -4 4 C-4 3.34 -4 2.68 -4 2 C-2.68 2 -1.36 2 0 2 C0 1.34 0 0.68 0 0 Z " fill="#DDB668" transform="translate(260,139)"/>
<path d="M0 0 C0.66 0 1.32 0 2 0 C4.23334367 2.27119696 4.95840784 3.60293349 5.29296875 6.796875 C5.25816406 7.77140625 5.22335937 8.7459375 5.1875 9.75 C5.14689453 11.22726563 5.14689453 11.22726563 5.10546875 12.734375 C5.07066406 13.48203125 5.03585937 14.2296875 5 15 C4.67 15 4.34 15 4 15 C3.896875 13.783125 3.79375 12.56625 3.6875 11.3125 C3.23644308 7.56474766 2.13133445 5.15066831 0 2 C0 1.34 0 0.68 0 0 Z " fill="#57441F" transform="translate(264,93)"/>
<path d="M0 0 C3 0 3 0 4.75 1.6875 C6 4 6 4 5.6875 6.75 C5.460625 7.4925 5.23375 8.235 5 9 C1.9083091 6.47043472 1.09068668 3.77545388 0 0 Z " fill="#604D3C" transform="translate(202,97)"/>
<path d="M0 0 C1.63001953 0.01353516 1.63001953 0.01353516 3.29296875 0.02734375 C4.12441406 0.03894531 4.95585937 0.05054688 5.8125 0.0625 C5.8125 0.7225 5.8125 1.3825 5.8125 2.0625 C3.68881556 2.28384176 1.56345976 2.48920007 -0.5625 2.6875 C-1.74585938 2.80351562 -2.92921875 2.91953125 -4.1484375 3.0390625 C-5.15132812 3.04679688 -6.15421875 3.05453125 -7.1875 3.0625 C-7.8475 2.4025 -8.5075 1.7425 -9.1875 1.0625 C-5.90230525 -0.03256492 -3.45086585 -0.03710608 0 0 Z " fill="#3A2D10" transform="translate(258.1875,144.9375)"/>
<path d="M0 0 C4.1424367 1.38081223 5.32203099 3.59825558 8 7 C6.68 7.33 5.36 7.66 4 8 C0 2.25 0 2.25 0 0 Z " fill="#34220A" transform="translate(191,133)"/>
<path d="M0 0 C0.99 0 1.98 0 3 0 C3 0.66 3 1.32 3 2 C2.34 2 1.68 2 1 2 C1 2.66 1 3.32 1 4 C0.34 4 -0.32 4 -1 4 C-1 4.66 -1 5.32 -1 6 C-2.98 6.99 -2.98 6.99 -5 8 C-4.67 6.35 -4.34 4.7 -4 3 C-3.01 3 -2.02 3 -1 3 C-0.67 2.01 -0.34 1.02 0 0 Z " fill="#BA9F5B" transform="translate(269,136)"/>
<path d="M0 0 C-0.969375 0.61875 -1.93875 1.2375 -2.9375 1.875 C-6.02835362 3.65678846 -6.02835362 3.65678846 -7 6 C-7.66 6 -8.32 6 -9 6 C-8.34 4.02 -7.68 2.04 -7 0 C-2.25 -1.125 -2.25 -1.125 0 0 Z " fill="#433319" transform="translate(259,139)"/>
<path d="M0 0 C2.97 0.495 2.97 0.495 6 1 C2.67692308 4.93846154 2.67692308 4.93846154 -0.75 5.25 C-1.4925 5.1675 -2.235 5.085 -3 5 C-2.01 3.35 -1.02 1.7 0 0 Z " fill="#7B6C3D" transform="translate(256,120)"/>
<path d="M0 0 C1.85776765 3.13498292 2.20140476 5.37471432 2 9 C1.01 9.33 0.02 9.66 -1 10 C-2.46726798 6.18510326 -1.43336419 3.70988378 0 0 Z " fill="#ECCD81" transform="translate(226,110)"/>
<path d="M0 0 C1.34313399 0.64669414 2.67391178 1.31903578 4 2 C4.886875 2.433125 5.77375 2.86625 6.6875 3.3125 C9 5 9 5 9.8125 7.6875 C9.874375 8.450625 9.93625 9.21375 10 10 C2.51708428 3.84965831 2.51708428 3.84965831 0 0 Z " fill="#44341E" transform="translate(215,93)"/>
<path d="M0 0 C0.99 0.33 1.98 0.66 3 1 C5.39254576 1.22560676 7.78928123 1.40848595 10.1875 1.5625 C12.09595703 1.68818359 12.09595703 1.68818359 14.04296875 1.81640625 C15.01878906 1.87699219 15.99460937 1.93757812 17 2 C17 2.33 17 2.66 17 3 C11.39 3 5.78 3 0 3 C0 2.01 0 1.02 0 0 Z " fill="#301F0D" transform="translate(245,153)"/>
<path d="M0 0 C1 2 1 2 0.375 4.875 C-1.18787818 8.42699587 -2.83496039 9.83444658 -6 12 C-4 8 -2 4 0 0 Z " fill="#6E572A" transform="translate(271,121)"/>
<path d="M0 0 C1.98 0.66 3.96 1.32 6 2 C6 2.99 6 3.98 6 5 C6.99 5 7.98 5 9 5 C9 5.66 9 6.32 9 7 C5.07353523 5.69117841 2.72225079 4.1255472 0 1 C0 0.67 0 0.34 0 0 Z " fill="#3F2F14" transform="translate(207,135)"/>
<path d="M0 0 C0.33 0.66 0.66 1.32 1 2 C0.67 2.99 0.34 3.98 0 5 C-0.66 5 -1.32 5 -2 5 C-2.33 6.32 -2.66 7.64 -3 9 C-4.32 9.33 -5.64 9.66 -7 10 C-7 9.34 -7 8.68 -7 8 C-6.34 8 -5.68 8 -5 8 C-5 7.34 -5 6.68 -5 6 C-4.34 6 -3.68 6 -3 6 C-3 5.34 -3 4.68 -3 4 C-2.34 4 -1.68 4 -1 4 C-0.67 2.68 -0.34 1.36 0 0 Z " fill="#614C25" transform="translate(275,132)"/>
<path d="M0 0 C0.33 0.66 0.66 1.32 1 2 C1.66 2 2.32 2 3 2 C3 2.99 3 3.98 3 5 C3.66 5 4.32 5 5 5 C5.33 6.32 5.66 7.64 6 9 C3.5067466 8.00269864 2.22532561 7.34925469 0.75 5.0625 C0 3 0 3 0 0 Z " fill="#A18345" transform="translate(192,129)"/>
<path d="M0 0 C1.65 0 3.3 0 5 0 C5 0.99 5 1.98 5 3 C4.34 3 3.68 3 3 3 C3 3.66 3 4.32 3 5 C2.01 5.33 1.02 5.66 0 6 C0 4.02 0 2.04 0 0 Z " fill="#26190A" transform="translate(232,127)"/>
<path d="M0 0 C0.66 0.33 1.32 0.66 2 1 C2.5625 3.3125 2.5625 3.3125 3 6 C3.32483418 7.33542939 3.6550855 8.66961551 4 10 C3.34 10 2.68 10 2 10 C-0.17364926 7.18230651 -1.08677021 5.7809319 -0.6875 2.1875 C-0.460625 1.465625 -0.23375 0.74375 0 0 Z " fill="#382B18" transform="translate(206,93)"/>
<path d="M0 0 C1.98 0.66 3.96 1.32 6 2 C5.42655063 4.86724686 5.1385485 5.8614515 3 8 C1.92474806 5.34771188 0.90543849 2.71631546 0 0 Z " fill="#27220D" transform="translate(225,132)"/>
<path d="M0 0 C2.66735273 2.48952921 4.55746343 4.63408134 6 8 C3.5625 7.375 3.5625 7.375 1 6 C0.1875 2.875 0.1875 2.875 0 0 Z " fill="#94753B" transform="translate(198,125)"/>
<path d="M0 0 C1.65 0 3.3 0 5 0 C5 2.97 5 5.94 5 9 C4.67 9 4.34 9 4 9 C4 6.69 4 4.38 4 2 C2.68 2.33 1.36 2.66 0 3 C0 2.01 0 1.02 0 0 Z " fill="#C09756" transform="translate(275,115)"/>
<path d="M0 0 C0.33 0.99 0.66 1.98 1 3 C-0.8125 4.0625 -0.8125 4.0625 -3 5 C-3.99 4.67 -4.98 4.34 -6 4 C-4.60804085 1.2160817 -2.84424221 1.02101003 0 0 Z " fill="#A38246" transform="translate(265,113)"/>
<path d="M0 0 C2.46800047 1.15173355 4.04783565 2.04783565 6 4 C5.01 4.33 4.02 4.66 3 5 C2.67 5.66 2.34 6.32 2 7 C1.34 6.67 0.68 6.34 0 6 C0 4.02 0 2.04 0 0 Z " fill="#917948" transform="translate(215,106)"/>
<path d="M0 0 C0 1.32 0 2.64 0 4 C-1.65 3.67 -3.3 3.34 -5 3 C-5 3.66 -5 4.32 -5 5 C-6.65 5 -8.3 5 -10 5 C-8.68 4.67 -7.36 4.34 -6 4 C-6 3.34 -6 2.68 -6 2 C-2.25 0 -2.25 0 0 0 Z " fill="#161009" transform="translate(210,90)"/>
<path d="M0 0 C2 3 2 3 2 7 C2.66 7 3.32 7 4 7 C3.67 8.32 3.34 9.64 3 11 C2.34 10.67 1.68 10.34 1 10 C0.5859375 7.71484375 0.5859375 7.71484375 0.375 4.9375 C0.30023438 4.01839844 0.22546875 3.09929687 0.1484375 2.15234375 C0.09945312 1.44207031 0.05046875 0.73179688 0 0 Z " fill="#B08C4B" transform="translate(194,116)"/>
<path d="M0 0 C1.65 1.65 3.3 3.3 5 5 C4.67 5.66 4.34 6.32 4 7 C3.34 6.34 2.68 5.68 2 5 C1.01 5 0.02 5 -1 5 C-1 2 -1 2 0 0 Z " fill="#5B4A26" transform="translate(214,97)"/>
<path d="M0 0 C1.98 0 3.96 0 6 0 C5.67 0.99 5.34 1.98 5 3 C3.35 3 1.7 3 0 3 C0 2.01 0 1.02 0 0 Z " fill="#101010" transform="translate(353,167)"/>
<path d="M0 0 C0.33 0.66 0.66 1.32 1 2 C1.66 2 2.32 2 3 2 C2.67 3.32 2.34 4.64 2 6 C1.01 6 0.02 6 -1 6 C-0.67 4.02 -0.34 2.04 0 0 Z " fill="#E4B55B" transform="translate(200,133)"/>
<path d="M0 0 C0.33 0.66 0.66 1.32 1 2 C1.66 2.33 2.32 2.66 3 3 C2.01 3.66 1.02 4.32 0 5 C-0.33 4.67 -0.66 4.34 -1 4 C-1.33 4.66 -1.66 5.32 -2 6 C-2.66 5.67 -3.32 5.34 -4 5 C-3 2 -3 2 0 0 Z " fill="#917E4A" transform="translate(244,101)"/>
<path d="M0 0 C2.475 0.495 2.475 0.495 5 1 C4.67 1.66 4.34 2.32 4 3 C3.34 2.67 2.68 2.34 2 2 C2.33 3.98 2.66 5.96 3 8 C2.34 8 1.68 8 1 8 C0.67 5.36 0.34 2.72 0 0 Z " fill="#C4A863" transform="translate(220,102)"/>
<path d="M0 0 C0.99 0 1.98 0 3 0 C2.67 0.99 2.34 1.98 2 3 C1.34 3 0.68 3 0 3 C-0.33 4.32 -0.66 5.64 -1 7 C-1.33 7 -1.66 7 -2 7 C-2 5.35 -2 3.7 -2 2 C-1.34 2 -0.68 2 0 2 C0 1.34 0 0.68 0 0 Z " fill="#39301A" transform="translate(241,100)"/>
<path d="M0 0 C0.33 1.32 0.66 2.64 1 4 C0.01 4 -0.98 4 -2 4 C-2 3.34 -2 2.68 -2 2 C-4.64 2 -7.28 2 -10 2 C-10 1.67 -10 1.34 -10 1 C-2.25 0 -2.25 0 0 0 Z " fill="#BC9342" transform="translate(264,96)"/>
<path d="M0 0 C1.98 0.99 1.98 0.99 4 2 C4 5 4 5 3 7 C0 3.375 0 3.375 0 0 Z " fill="#8B7A5C" transform="translate(213,93)"/>
<path d="M0 0 C1.98 0 3.96 0 6 0 C6.66 1.32 7.32 2.64 8 4 C5.69 3.67 3.38 3.34 1 3 C0.67 2.01 0.34 1.02 0 0 Z " fill="#997A3C" transform="translate(258,94)"/>
</svg>
